HIERARCHY
ROOT Hips
{
 OFFSET 0.000000 0.000000 0.000000
 CHANNELS 6 Xposition Yposition Zposition Yrotation Xrotation Zrotation
 JOINT Chest
 {
  OFFSET 0.000000 9.585900 0.002600
  CHANNELS 3 Yrotation Xrotation Zrotation
  JOINT Chest2
  {
   OFFSET 0.000000 9.601200 -0.005300
   CHANNELS 3 Yrotation Xrotation Zrotation
   JOINT Chest3
   {
    OFFSET 0.000000 9.561800 0.000000
    CHANNELS 3 Yrotation Xrotation Zrotation
    JOINT Chest4
    {
     OFFSET 0.000000 9.552100 0.000000
     CHANNELS 3 Yrotation Xrotation Zrotation
     JOINT Neck
     {
      OFFSET 0.000000 14.453000 0.000000
      CHANNELS 3 Yrotation Xrotation Zrotation
      JOINT Head
      {
       OFFSET 0.000000 8.936500 -0.011300
       CHANNELS 3 Yrotation Xrotation Zrotation
       End Site
       {
        OFFSET 0.000000 17.073600 -0.006000
       }
      }
     }
     JOINT RightCollar
     {
      OFFSET -2.921100 9.558500 0.000000
      CHANNELS 3 Yrotation Xrotation Zrotation
      JOINT RightShoulder
      {
       OFFSET -13.519700 0.000000 0.000000
       CHANNELS 3 Yrotation Xrotation Zrotation
       JOINT RightElbow
       {
        OFFSET 0.000000 -29.696600 0.000000
        CHANNELS 3 Yrotation Xrotation Zrotation
        JOINT RightWrist
        {
         OFFSET 0.000000 -24.004700 0.000000
         CHANNELS 3 Yrotation Xrotation Zrotation
         End Site
         {
          OFFSET 0.000000 -17.728500 0.000000
         }
        }
       }
      }
     }
     JOINT LeftCollar
     {
      OFFSET 2.921100 9.558500 0.000000
      CHANNELS 3 Yrotation Xrotation Zrotation
      JOINT LeftShoulder
      {
       OFFSET 13.519700 0.000000 0.000000
       CHANNELS 3 Yrotation Xrotation Zrotation
       JOINT LeftElbow
       {
        OFFSET 0.000000 -29.696600 0.000000
        CHANNELS 3 Yrotation Xrotation Zrotation
        JOINT LeftWrist
        {
         OFFSET 0.000000 -24.004700 0.000000
         CHANNELS 3 Yrotation Xrotation Zrotation
         End Site
         {
          OFFSET 0.000000 -17.728500 0.000000
         }
        }
       }
      }
     }
    }
   }
  }
 }
 JOINT RightHip
 {
  OFFSET -7.771700 -0.012900 -0.001300
  CHANNELS 3 Yrotation Xrotation Zrotation
  JOINT RightKnee
  {
   OFFSET 0.000000 -40.869800 0.001200
   CHANNELS 3 Yrotation Xrotation Zrotation
   JOINT RightAnkle
   {
    OFFSET 0.000000 -39.717900 0.002100
    CHANNELS 3 Yrotation Xrotation Zrotation
    JOINT RightToe
    {
     OFFSET 0.000000 -4.965400 11.033500
     CHANNELS 3 Yrotation Xrotation Zrotation
     End Site
     {
      OFFSET 0.000000 -1.423100 5.872300
     }
    }
   }
  }
 }
 JOINT LeftHip
 {
  OFFSET 7.771700 -0.012900 -0.001300
  CHANNELS 3 Yrotation Xrotation Zrotation
  JOINT LeftKnee
  {
   OFFSET 0.000000 -40.869800 0.001200
   CHANNELS 3 Yrotation Xrotation Zrotation
   JOINT LeftAnkle
   {
    OFFSET 0.000000 -39.717900 0.002100
    CHANNELS 3 Yrotation Xrotation Zrotation
    JOINT LeftToe
    {
     OFFSET 0.000000 -4.965400 11.033500
     CHANNELS 3 Yrotation Xrotation Zrotation
     End Site
     {
      OFFSET 0.000000 -1.423100 5.872300
     }
    }
   }
  }
 }
}
MOTION
Frames: 9
Frame Time: 0.008333
-3.174989 54.284359 34.253435 170.954186 -41.038088 -3.616929 4.400507 22.161743 2.884694 0.499941 3.204133 0.332981 0.819624 5.184812 0.553688 3.331475 18.867523 2.454743 1.709469 14.845729 -0.270843 3.303157 -8.199565 -1.148216 -6.755483 -0.048685 -3.226039 -1.583404 0.274925 7.439967 -166.088109 -82.860202 -176.797853 1.200032 -0.723720 -5.379053 -4.089313 1.809817 -0.624872 8.863159 -0.042084 3.121949 144.139015 -73.555121 -157.802103 -5.910002 -1.243474 4.353173 -2.993171 -41.626454 4.376295 -116.406837 82.803717 -113.203288 -0.792217 -4.430892 1.488212 0.396137 -0.527759 0.486025 -1.341967 -36.372962 6.281106 60.434001 82.448485 51.216517 -3.432243 -10.155903 9.133965 -0.116327 0.106990 -0.146913
-3.139443 54.277253 34.273070 171.090720 -41.089113 -3.722761 4.368718 22.270753 2.970971 0.500431 3.217853 0.339239 0.820439 5.205828 0.563709 3.331536 18.898232 2.487257 1.676907 14.836012 -0.314783 3.258852 -8.217020 -1.218586 -6.726534 -0.070404 -3.252756 -1.586504 0.382807 7.444697 -166.555528 -82.760224 -176.373124 1.252329 -0.757958 -5.517972 -4.098627 1.769540 -0.631279 8.847841 -0.105454 3.180260 144.481525 -73.516574 -158.116300 -5.861178 -1.506566 4.497575 -3.281341 -41.744403 4.588120 -116.426398 82.354569 -113.328315 -0.447412 -4.429306 1.631583 0.316690 -0.533971 0.285664 -1.469596 -36.336131 6.284737 61.003564 82.328684 51.830175 -3.497758 -10.162268 9.087457 -0.103336 0.127716 -0.124905
-3.102694 54.273831 34.282350 171.240158 -41.149732 -3.862628 4.333794 22.384546 3.083578 0.501773 3.232273 0.345699 0.822670 5.227823 0.574132 3.336683 18.929850 2.521501 1.648465 14.830942 -0.355306 3.220936 -8.225892 -1.283884 -6.694565 -0.085956 -3.270668 -1.589705 0.464744 7.423665 -167.019444 -82.670955 -175.952806 1.308571 -0.783626 -5.619056 -4.105297 1.728310 -0.644592 8.832768 -0.189292 3.245014 144.861129 -73.487620 -158.473899 -5.803054 -1.824301 4.657070 -3.600890 -41.800787 4.837194 -116.570195 82.054675 -113.578436 -0.234659 -4.462460 1.782480 0.218998 -0.505076 0.090745 -1.682613 -36.289012 6.382393 61.465607 82.292411 52.264219 -3.524653 -10.157156 9.063944 -0.109380 0.119750 -0.119991
-3.074778 54.272052 34.280852 171.390915 -41.204476 -3.969446 4.274597 22.493713 3.155209 0.503982 3.245995 0.351829 0.826267 5.248650 0.584036 3.347190 18.959204 2.554520 1.625490 14.831341 -0.390204 3.191068 -8.224772 -1.340624 -6.658142 -0.088679 -3.278316 -1.597243 0.515659 7.376294 -167.431490 -82.602684 -175.579530 1.365410 -0.797605 -5.684567 -4.142515 1.651912 -0.681176 8.852210 -0.255092 3.338915 145.242280 -73.471847 -158.839783 -5.751655 -2.200496 4.841519 -3.850356 -41.817997 5.006031 -117.181494 81.934826 -114.260936 -0.181092 -4.579296 1.858008 0.074491 -0.389147 -0.013293 -1.863307 -36.237501 6.452515 61.626044 82.308475 52.380490 -3.539408 -10.144021 9.055336 -0.094743 0.102383 -0.104694
-3.051013 54.269754 34.272007 171.530392 -41.233682 -4.062972 4.207065 22.579415 3.214200 0.492771 3.226175 0.333107 0.847224 5.298610 0.616425 3.362346 18.984346 2.583663 1.610335 14.836895 -0.418858 3.173261 -8.214073 -1.388504 -6.614514 -0.080132 -3.273292 -1.617805 0.537888 7.302316 -167.729151 -82.561597 -175.308781 1.422836 -0.798517 -5.722131 -4.121572 1.645809 -0.691118 8.815549 -0.394794 3.398586 145.626693 -73.468029 -159.206219 -5.731396 -2.618723 5.052014 -4.022414 -41.823899 5.094593 -118.246437 81.967644 -115.344835 -0.205036 -4.720178 1.968710 0.012052 -0.236295 -0.108256 -2.053570 -36.209646 6.538541 61.780722 82.342664 52.469347 -3.572186 -10.120516 9.043916 -0.060532 0.072768 -0.079768
-3.028163 54.268291 34.255013 171.523826 -41.257447 -4.067918 4.243979 22.656761 3.279636 0.503389 3.250885 0.348725 0.844165 5.298497 0.612000 3.379419 19.004003 2.607348 1.603883 14.846904 -0.441499 3.169319 -8.194931 -1.428151 -6.568063 -0.066818 -3.255705 -1.653093 0.535625 7.206159 -167.862218 -82.552673 -175.186650 1.479429 -0.783374 -5.741528 -4.101491 1.645651 -0.700311 8.776256 -0.544520 3.454953 146.064025 -73.475141 -159.613348 -5.739206 -3.049555 5.282889 -4.000343 -41.799153 5.090370 -119.445923 82.114773 -116.485222 -0.204469 -4.915762 1.993162 -0.040653 -0.089602 -0.145921 -2.154975 -36.190658 6.652888 62.077954 82.410450 52.683619 -3.569667 -10.166760 9.047314 -0.065327 0.074482 -0.076836
-3.010320 54.263411 34.234041 171.551785 -41.230882 -4.076515 4.238603 22.689638 3.319051 0.502597 3.243382 0.341678 0.853446 5.324522 0.627611 3.394920 19.018631 2.625734 1.606668 14.861621 -0.457675 3.180201 -8.166950 -1.458953 -6.521364 -0.051195 -3.228101 -1.695061 0.511037 7.096896 -167.810901 -82.578900 -175.236890 1.530213 -0.749734 -5.745941 -4.104148 1.631048 -0.711509 8.754218 -0.673707 3.512246 146.596421 -73.496168 -160.099293 -5.752006 -3.474103 5.533926 -3.920842 -41.781752 4.977596 -120.818782 82.344302 -117.725724 -0.218684 -5.188133 1.922928 -0.094357 0.071946 -0.131507 -2.252461 -36.217380 6.725716 62.176363 82.457390 52.713913 -3.577195 -10.160913 9.048133 -0.053150 0.052830 -0.067884
-2.994324 54.259310 34.205657 171.526302 -41.195843 -4.039867 4.256325 22.683157 3.319855 0.504053 3.247810 0.343822 0.868655 5.361463 0.652342 3.406957 19.030330 2.640710 1.618486 14.881244 -0.467703 3.205641 -8.129823 -1.481539 -6.472512 -0.035293 -3.195188 -1.734837 0.469722 6.982791 -167.561720 -82.637275 -175.482318 1.572120 -0.702376 -5.741786 -4.130604 1.585635 -0.736338 8.747848 -0.758291 3.582116 147.225216 -73.526252 -160.661966 -5.756403 -3.882799 5.806625 -3.769770 -41.740137 4.805481 -122.421054 82.613805 -119.158490 -0.229078 -5.558310 1.809425 -0.149882 0.259246 -0.108438 -2.249613 -36.253555 6.734191 62.358648 82.501351 52.877054 -3.552347 -10.195081 9.051029 -0.070619 0.045849 -0.067513
-2.969290 54.259380 34.169590 171.505201 -41.175029 -4.054074 4.307307 22.724803 3.406219 0.516552 3.284577 0.369013 0.852610 5.322987 0.622931 3.414896 19.039563 2.653681 1.638132 14.905832 -0.473179 3.243919 -8.083503 -1.498483 -6.419156 -0.022629 -3.161528 -1.763066 0.417233 6.869987 -167.072422 -82.724829 -175.973967 1.607502 -0.645640 -5.747583 -4.153878 1.547989 -0.758216 8.727450 -0.831177 3.640736 147.927888 -73.556767 -161.277902 -5.744639 -4.267147 6.095243 -3.654465 -41.637474 4.665499 -124.147851 82.884603 -120.688342 -0.245832 -6.013497 1.646860 -0.178335 0.443470 -0.069322 -2.428424 -36.264619 6.966180 62.747191 82.637768 53.100132 -3.623876 -10.240018 9.057240 -0.007041 0.018826 -0.030080
